<svg class="icon" style="width: 1em;height: 1em;vertical-align: middle;fill: currentColor;overflow: hidden;" viewBox="0 0 1024 1024" version="1.1" xmlns="http://www.w3.org/2000/svg" p-id="26103"><path d="M992 448H960c-12.8-204.8-179.2-364.8-384-384V32c0-19.2-12.8-32-32-32S512 12.8 512 32V64c-204.8 19.2-364.8 179.2-384 384h-32c-19.2 0-32 12.8-32 32s12.8 32 32 32H128c12.8 204.8 179.2 364.8 384 384v32c0 19.2 12.8 32 32 32s32-12.8 32-32V896c204.8-12.8 364.8-179.2 384-384h32c19.2 0 32-12.8 32-32s-12.8-32-32-32zM576 832v-96c0-19.2-12.8-32-32-32s-32 12.8-32 32V832c-166.4-12.8-300.8-147.2-320-320h96c19.2 0 32-12.8 32-32S307.2 448 288 448H192c12.8-166.4 147.2-300.8 320-320v96c0 19.2 12.8 32 32 32s32-12.8 32-32V128c166.4 12.8 300.8 147.2 320 320h-96c-19.2 0-32 12.8-32 32s12.8 32 32 32H896c-19.2 166.4-153.6 300.8-320 320z" fill="rgba(255, 255, 255, 0.6)" p-id="26104"></path></svg>