<svg class="icon" style="width: 1em;height: 1em;vertical-align: middle;fill: currentColor;overflow: hidden;" viewBox="0 0 1024 1024" version="1.1" xmlns="http://www.w3.org/2000/svg" p-id="24928"><path d="M595.552 140.992a16.32 16.32 0 0 1 11.744-19.968 16.64 16.64 0 0 1 20.288 11.52l88.704 324.864H681.92l-86.368-316.416zM418.016 399.616c-10.304 0-18.656-8.864-18.656-20V310.336c0-10.848 8.352-19.68 18.656-19.68 10.336 0 18.688 8.832 18.688 19.68v69.28c0 11.136-8.352 20-18.688 20zM418.016 212.896a18.784 18.784 0 0 1-18.656-19.072V140.992a18.72 18.72 0 1 1 37.344 0v52.832a18.784 18.784 0 0 1-18.688 19.072zM418.016 591.648c10.336 0 18.688 8.544 18.688 18.656v89.888a18.624 18.624 0 0 1-18.688 18.656 18.592 18.592 0 0 1-18.656-18.656v-89.888c0-10.112 8.352-18.656 18.656-18.656zM153.088 457.632H118.656L207.392 132.736a16.64 16.64 0 0 1 20.352-11.52 16.32 16.32 0 0 1 11.712 19.968l-86.368 316.448zM33.152 896.96a16.64 16.64 0 0 1-20.352 11.52 16.352 16.352 0 0 1-11.744-19.968l91.136-333.76h34.368L33.152 896.96zM418.016 771.168c10.112 0 18.304 8.608 18.304 18.88v104.256a18.56 18.56 0 0 1-18.304 18.88 18.56 18.56 0 0 1-18.304-18.88v-104.256c0-10.304 8.192-18.88 18.304-18.88zM936.288 902.208a190.624 190.624 0 0 0-62.24-120.032 190.688 190.688 0 0 0-65.696-38.496 134.24 134.24 0 0 0 32.064-23.648 131.904 131.904 0 0 0 38.816-93.824 132 132 0 0 0-38.816-93.76 131.904 131.904 0 0 0-93.824-38.848 131.84 131.84 0 0 0-93.824 38.848 131.744 131.744 0 0 0-38.848 93.76c0 35.456 13.792 68.768 38.848 93.824a132.8 132.8 0 0 0 32.032 23.648 190.816 190.816 0 0 0-127.936 158.528 12.704 12.704 0 0 0 11.136 14.048l1.472 0.064a12.672 12.672 0 0 0 12.576-11.2 164.928 164.928 0 0 1 54.016-104.128 164.8 164.8 0 0 1 105.984-42.208l4.544 0.096 4.896-0.096h0.672a165.792 165.792 0 0 1 105.056 42.208 165.44 165.44 0 0 1 53.952 104.128 12.704 12.704 0 0 0 14.016 11.136 12.736 12.736 0 0 0 11.104-14.048z m-297.024-276c0-28.672 11.168-55.584 31.392-75.84a106.688 106.688 0 0 1 75.936-31.456c28.64 0 55.584 11.168 75.872 31.456a106.56 106.56 0 0 1 31.424 75.84c0 28.704-11.2 55.68-31.424 75.936a107.2 107.2 0 0 1-71.296 31.296 213.568 213.568 0 0 0-9.056 0h-0.352a106.56 106.56 0 0 1-71.104-31.296 106.56 106.56 0 0 1-31.392-75.936z" fill="rgba(255, 255, 255, 0.6)" p-id="24929"></path><path d="M1023.392 874.816a164.64 164.64 0 0 0-106.56-135.584c8.768-5.088 16.96-11.328 24.16-18.528a114.464 114.464 0 0 0 33.728-81.408c0-30.784-11.968-59.68-33.728-81.472a114.368 114.368 0 0 0-53.76-30.368 12.672 12.672 0 1 0-6.048 24.576 89.92 89.92 0 0 1 2.688 173.792c-6.592 1.792-13.44 2.88-20.416 3.168h-0.192a5.888 5.888 0 0 0-1.056 0.096l-2.656 0.032a12.672 12.672 0 0 0 0 25.312c1.344 0 2.752 0 4.192-0.064h0.48a139.072 139.072 0 0 1 88.576 35.616 139.296 139.296 0 0 1 45.472 87.744c0.768 6.464 6.24 11.2 12.608 11.2 0.48 0 0.96 0 1.472-0.064a12.608 12.608 0 0 0 11.04-14.048z" fill="rgba(255, 255, 255, 0.6)" p-id="24930"></path></svg>