<svg class="icon" style="width: 1em;height: 1em;vertical-align: middle;fill: currentColor;overflow: hidden;" viewBox="0 0 1024 1024" version="1.1" xmlns="http://www.w3.org/2000/svg" p-id="12670"><path d="M766.848 966.784H272.128c-112.256 0-203.392-91.008-203.392-203.392V268.672C68.736 156.288 159.872 65.28 272.128 65.28h494.72C879.232 65.28 970.24 156.288 970.24 268.672v494.72c0 112.256-91.008 203.392-203.392 203.392z" fill="#FFBC31" p-id="12671"></path><path d="M741.376 389.888c0-118.528-99.328-214.528-221.824-214.528-122.496 0-221.824 96-221.824 214.528 0 69.504 34.176 131.2 87.168 170.368 42.88 31.744 67.84 82.048 67.84 135.296 0 12.16 9.856 22.016 22.016 22.016h89.6c12.16 0 22.016-9.856 22.016-22.016 0-53.248 24.96-103.68 67.84-135.296 52.992-39.168 87.168-100.864 87.168-170.368zM577.792 765.568h-116.608c-8.576 0-15.488-6.912-15.488-15.488 0-8.576 6.912-15.488 15.488-15.488h116.608c8.576 0 15.488 6.912 15.488 15.488 0 8.576-6.912 15.488-15.488 15.488z" fill="#FFFFFF" p-id="12672"></path><path d="M608 434.688H431.104c-8.576 0-15.488 6.912-15.488 15.488 0 8.576 6.912 15.488 15.488 15.488h72.96v192.384c0 8.576 6.912 15.488 15.488 15.488 8.576 0 15.488-6.912 15.488-15.488V465.664h72.96c8.576 0 15.488-6.912 15.488-15.488 0-8.576-6.912-15.488-15.488-15.488z" fill="#FFBC31" p-id="12673"></path><path d="M563.584 813.568h-88.192c-8.576 0-15.488-6.912-15.488-15.488 0-8.576 6.912-15.488 15.488-15.488h88.192c8.576 0 15.488 6.912 15.488 15.488 0 8.576-6.912 15.488-15.488 15.488zM545.664 856.704h-52.224c-8.576 0-15.488-6.912-15.488-15.488 0-8.576 6.912-15.488 15.488-15.488h52.224c8.576 0 15.488 6.912 15.488 15.488 0 8.448-6.912 15.488-15.488 15.488z" fill="#FFFFFF" p-id="12674"></path></svg>