<svg class="icon" style="width: 1em;height: 1em;vertical-align: middle;fill: currentColor;overflow: hidden;" viewBox="0 0 1024 1024" version="1.1" xmlns="http://www.w3.org/2000/svg" p-id="23837"><path d="M469.333333 704h-42.666666v-128h213.333333v128h-170.666667z m0-42.666667h128v-42.666666h-128v42.666666zM192 388.266667l38.4 21.333333c-12.8 34.133333-17.066667 68.266667-17.066667 102.4s4.266667 68.266667 17.066667 102.4l-38.4 21.333333C179.2 597.333333 170.666667 554.666667 170.666667 512s8.533333-85.333333 21.333333-123.733333zM256 277.333333c55.466667-64 128-110.933333 213.333333-128v42.666667C401.066667 209.066667 337.066667 247.466667 290.133333 298.666667L256 277.333333z m618.666667 358.4l-38.4-21.333333c8.533333-29.866667 17.066667-68.266667 17.066666-102.4s-4.266667-68.266667-17.066666-102.4l38.4-21.333333c12.8 38.4 21.333333 81.066667 21.333333 123.733333s-8.533333 85.333333-21.333333 123.733333zM810.666667 746.666667c-55.466667 64-128 110.933333-213.333334 128v-42.666667c68.266667-12.8 132.266667-51.2 179.2-106.666667l34.133334 21.333334z m-554.666667 0l34.133333-21.333334c46.933333 51.2 106.666667 89.6 179.2 106.666667v42.666667c-85.333333-17.066667-162.133333-64-213.333333-128z m554.666667-469.333334l-34.133334 21.333334c-46.933333-51.2-106.666667-89.6-179.2-106.666667v-42.666667c85.333333 17.066667 162.133333 64 213.333334 128zM533.333333 213.333333c-25.6 0-42.666667-17.066667-42.666666-42.666666s17.066667-42.666667 42.666666-42.666667 42.666667 17.066667 42.666667 42.666667-17.066667 42.666667-42.666667 42.666666z m0 682.666667c-25.6 0-42.666667-17.066667-42.666666-42.666667s17.066667-42.666667 42.666666-42.666666 42.666667 17.066667 42.666667 42.666666-17.066667 42.666667-42.666667 42.666667z m-298.666666-170.666667c-25.6 0-42.666667-17.066667-42.666667-42.666666s17.066667-42.666667 42.666667-42.666667 42.666667 17.066667 42.666666 42.666667-17.066667 42.666667-42.666666 42.666666z m597.333333 0c-25.6 0-42.666667-17.066667-42.666667-42.666666s17.066667-42.666667 42.666667-42.666667 42.666667 17.066667 42.666667 42.666667-17.066667 42.666667-42.666667 42.666666z m-597.333333-341.333333c-25.6 0-42.666667-17.066667-42.666667-42.666667s17.066667-42.666667 42.666667-42.666666 42.666667 17.066667 42.666666 42.666666-17.066667 42.666667-42.666666 42.666667z m597.333333 0c-25.6 0-42.666667-17.066667-42.666667-42.666667s17.066667-42.666667 42.666667-42.666666 42.666667 17.066667 42.666667 42.666666-17.066667 42.666667-42.666667 42.666667zM640 426.666667c0 59.733333-46.933333 106.666667-106.666667 106.666666S426.666667 486.4 426.666667 426.666667s46.933333-106.666667 106.666666-106.666667S640 366.933333 640 426.666667z m-42.666667 0c0-34.133333-29.866667-64-64-64S469.333333 392.533333 469.333333 426.666667s29.866667 64 64 64S597.333333 460.8 597.333333 426.666667z" fill="rgba(255, 255, 255, 0.6)" p-id="23838"></path></svg>